<?xml version="1.0" encoding="utf-8"?>
<!-- Generator: Adobe Illustrator 25.4.1, SVG Export Plug-In . SVG Version: 6.00 Build 0)  -->
<svg version="1.1" id="Calque_1" xmlns="http://www.w3.org/2000/svg" xmlns:xlink="http://www.w3.org/1999/xlink" x="0px" y="0px"
	 viewBox="0 0 42 42" style="enable-background:new 0 0 42 42;" xml:space="preserve">
<path d="M21,40.2c-4.4,0-8.5-0.6-11.7-1.6c-4.7-1.6-5.7-3.8-5.7-5.3V8.7c0-4.7,9-6.9,17.4-6.9S38.4,4,38.4,8.7v24.5
	c0,1.5-1,3.7-5.7,5.3C29.5,39.6,25.4,40.2,21,40.2z M6.9,25.3v8c0,0.2,0.6,1.2,3.5,2.1c5.5,1.8,15.7,1.8,21.2,0
	c2.9-1,3.5-1.9,3.5-2.1v-8c-0.7,0.4-1.5,0.7-2.4,1c-3.1,1-7.3,1.6-11.7,1.6s-8.5-0.6-11.7-1.6C8.4,26,7.6,25.6,6.9,25.3z M6.9,21
	c0,0.2,0.6,1.2,3.5,2.1c5.5,1.8,15.7,1.8,21.2,0c2.9-1,3.5-1.9,3.5-2.1v-8c-3.4,1.8-8.9,2.6-14.1,2.6S10.3,14.8,6.9,13V21z M6.9,8.7
	c0,1,4.9,3.6,14.1,3.6c9.2,0,14.1-2.5,14.1-3.6S30.2,5.2,21,5.2C11.8,5.2,6.9,7.7,6.9,8.7z"/>
</svg>
